<?xml version="1.0" encoding="UTF-8" standalone="no"?>
<svg xmlns="http://www.w3.org/2000/svg" width="512" height="179.2" viewBox="0 0 1024 360" role="img" aria-label="PotagerIA logo">
  <defs>
    <style>
      .mark { fill: #00E59B; }
      .word { fill: #FFFFFF; font-family: Inter, Roboto, "Segoe UI", Arial, sans-serif; font-weight: 700; letter-spacing: 0.5px; }
    </style>
  </defs>

  <!-- Mark: stylized leaf with circuitry veins -->
  <g transform="translate(32,24)">
    <!-- Leaf shape -->
    <path class="mark" d="M160,16
         C76,16 16,76 16,160
         C16,244 76,304 160,304
         C250,304 296,230 304,176
         C311,126 304,16 304,16
         C304,16 194,8 160,16 Z"/>
    <!-- Circuit stem and nodes -->
    <g fill="#FFFFFF">
      <path d="M120,252 L120,180 C120,166 128,156 144,152 L208,136 C224,132 232,120 232,108 L232,80 L252,80 L252,108 C252,132 236,156 208,164 L148,180 C140,182 136,188 136,196 L136,252 Z"/>
      <circle cx="120" cy="252" r="14"/>
      <circle cx="232" cy="80" r="14"/>
      <circle cx="208" cy="164" r="14"/>
    </g>
  </g>

  <!-- Wordmark -->
  <text class="word" x="360" y="210" font-size="130">PotagerIA</text>
</svg>
